<svg width="18" height="19" viewBox="0 0 18 19" fill="none" xmlns="http://www.w3.org/2000/svg">
<path d="M15.2477 3.80721C14.0825 3.26205 12.8367 2.86586 11.5342 2.64026C11.3742 2.92947 11.1873 3.31846 11.0585 3.6279C9.67387 3.41967 8.30201 3.41967 6.94287 3.6279C6.81404 3.31846 6.62292 2.92947 6.46152 2.64026C5.1576 2.86586 3.91032 3.26351 2.74514 3.81009C0.394982 7.3615 -0.242108 10.8247 0.0764375 14.2387C1.63519 15.4027 3.14581 16.1099 4.63093 16.5726C4.99762 16.0679 5.32465 15.5314 5.60638 14.9661C5.06981 14.7622 4.5559 14.5106 4.07031 14.2185C4.19913 14.123 4.32514 14.0233 4.44689 13.9206C7.40865 15.3059 10.6267 15.3059 13.5531 13.9206C13.6762 14.0233 13.8022 14.123 13.9296 14.2185C13.4426 14.512 12.9273 14.7636 12.3907 14.9675C12.6724 15.5314 12.9981 16.0694 13.3662 16.574C14.8527 16.1113 16.3647 15.4042 17.9235 14.2387C18.2973 10.281 17.285 6.8496 15.2477 3.80721ZM6.00988 12.1391C5.12079 12.1391 4.39166 11.3091 4.39166 10.2983C4.39166 9.28758 5.10522 8.45613 6.00988 8.45613C6.91457 8.45613 7.64367 9.28612 7.6281 10.2983C7.62951 11.3091 6.91457 12.1391 6.00988 12.1391ZM11.9901 12.1391C11.101 12.1391 10.3718 11.3091 10.3718 10.2983C10.3718 9.28758 11.0854 8.45613 11.9901 8.45613C12.8947 8.45613 13.6238 9.28612 13.6083 10.2983C13.6083 11.3091 12.8947 12.1391 11.9901 12.1391Z" fill="black"/>
</svg>
